<svg id="Слой_1" data-name="Слой 1" xmlns="http://www.w3.org/2000/svg" viewBox="0 0 14.97 14.97"><defs><style>.cls-1{fill:#4a494a;fill-rule:evenodd;}</style></defs><path class="cls-1" d="M298.07,413.29a7.49,7.49,0,1,0,7.49,7.49A7.48,7.48,0,0,0,298.07,413.29Zm0,14a6.55,6.55,0,1,1,6.55-6.55A6.55,6.55,0,0,1,298.07,427.33Z" transform="translate(-290.59 -413.29)"/><path class="cls-1" d="M298.76,420.78l2.45-2.43a.47.47,0,0,0,0-.66.46.46,0,0,0-.67,0l-2.45,2.42-2.48-2.48a.46.46,0,0,0-.67,0,.48.48,0,0,0,0,.67l2.48,2.48-2.49,2.47a.45.45,0,0,0,0,.66.46.46,0,0,0,.67,0l2.49-2.47,2.46,2.47a.47.47,0,0,0,.67-.67Z" transform="translate(-290.59 -413.29)"/></svg>