<svg id="Слой_1" data-name="Слой 1" xmlns="http://www.w3.org/2000/svg" viewBox="0 0 11.96 11.96"><defs><style>.cls-1{fill:#fff;}</style></defs><path class="cls-1" d="M364.45,395.52l-.18.16c-1.52,1.52-3,3.05-4.56,4.56a1,1,0,0,1-.43.26.64.64,0,0,1-.73-.33.7.7,0,0,1,.15-.84l4.61-4.61a1.15,1.15,0,0,1,.2-.14l-.2-.21-4.57-4.58a1.11,1.11,0,0,1-.26-.49.62.62,0,0,1,.36-.66.67.67,0,0,1,.77.11l.86.85,3.84,3.84.19.19a1.26,1.26,0,0,1,.13-.23l4.56-4.56a.75.75,0,0,1,.56-.27.63.63,0,0,1,.6.36.67.67,0,0,1-.06.72,1.62,1.62,0,0,1-.18.19l-4.51,4.52-.2.16.17.19,4.58,4.57a.75.75,0,0,1,.27.54.61.61,0,0,1-.38.63.64.64,0,0,1-.73-.09,1.14,1.14,0,0,1-.16-.15l-4.53-4.53Z" transform="translate(-358.47 -388.57)"/></svg>