<svg id="Слой_1" data-name="Слой 1" xmlns="http://www.w3.org/2000/svg" viewBox="0 0 28.01 37.5"><defs><style>.cls-1{fill:#4f924b;}</style></defs><path class="cls-1" d="M376.87,382.49c-2.91-4.88-8.88-6.69-12-6.69H364c-3.08,0-9.06,1.81-12,6.69-1.65,2.79-2.84,7.57.93,14.56,1.57,2.89,2.91,5.26,4.06,7.2a2.67,2.67,0,0,0,1.55.29,1.8,1.8,0,0,0,.76-.31,1.31,1.31,0,0,0,.5-1.1h0c-1.17-2-2.57-4.42-4.24-7.5-2.49-4.61-2.82-8.51-1-11.59,2.15-3.61,6.79-5.23,9.39-5.23h.94c2.6,0,7.23,1.62,9.38,5.23,1.84,3.08,1.5,7-1,11.59-6.89,12.76-9.3,14.93-9.36,15a1.5,1.5,0,0,0,.91,2.7,1.47,1.47,0,0,0,.9-.31c.45-.34,3-2.69,10.19-15.94C379.72,390.06,378.53,385.28,376.87,382.49Z" transform="translate(-350.43 -375.8)"/><path class="cls-1" d="M368.22,389.1a3.79,3.79,0,1,0-3.78,3.79A3.78,3.78,0,0,0,368.22,389.1Zm-4.57,0a.79.79,0,1,1,.79.79A.78.78,0,0,1,363.65,389.1Z" transform="translate(-350.43 -375.8)"/></svg>