<svg id="Слой_1" data-name="Слой 1" xmlns="http://www.w3.org/2000/svg" viewBox="0 0 35.81 28.94"><defs><style>.cls-1{fill:#4f924b;}</style></defs><path class="cls-1" d="M380.84,409H348a1.5,1.5,0,0,1,0-3h31.31V383.08H349.53V399.2a1.5,1.5,0,1,1-3,0V381.58a1.5,1.5,0,0,1,1.5-1.5h32.81a1.5,1.5,0,0,1,1.5,1.5v25.94A1.5,1.5,0,0,1,380.84,409Z" transform="translate(-346.53 -380.08)"/><path class="cls-1" d="M364.88,396.82a1.51,1.51,0,0,1-.86-.27l-11-7.64a1.5,1.5,0,0,1,1.71-2.47l10.07,7,8.88-7a1.5,1.5,0,1,1,1.85,2.37l-9.75,7.64A1.48,1.48,0,0,1,364.88,396.82Z" transform="translate(-346.53 -380.08)"/></svg>