<svg id="Слой_1" data-name="Слой 1" xmlns="http://www.w3.org/2000/svg" viewBox="0 0 33.72 35.3"><defs><style>.cls-1{fill:#4f924b;}</style></defs><path class="cls-1" d="M376.33,412.27l-.24,0c-.54-.09-13.33-2.2-20.53-9.49s-8-20.1-8-20.64a1.51,1.51,0,0,1,.83-1.42l7.15-3.57a1.49,1.49,0,0,1,1.78.33l5.07,5.61a1.5,1.5,0,0,1,0,2l-3.48,3.71c0,.28.09.69.17,1.27.12.78,1.9,4,3.49,6.49a1.5,1.5,0,0,1-2.54,1.61c-.84-1.34-3.64-5.85-3.91-7.65a18.7,18.7,0,0,1-.27-2.26,1.52,1.52,0,0,1,.41-1l3-3.19-3.38-3.74-5.22,2.61c.31,3,1.67,12.28,7.05,17.72s14.77,7.8,17.86,8.44l1.87-3.37a60,60,0,0,1-8.86-2.1,1.5,1.5,0,0,1,1-2.83,68.18,68.18,0,0,0,10.44,2.3,1.49,1.49,0,0,1,1.14.81,1.51,1.51,0,0,1,0,1.4l-3.45,6.2A1.5,1.5,0,0,1,376.33,412.27Z" transform="translate(-347.56 -376.97)"/></svg>