<svg id="Слой_1" data-name="Слой 1" xmlns="http://www.w3.org/2000/svg" viewBox="0 0 37.9 34.18"><defs><style>.cls-1{fill:#4f924b;}</style></defs><path class="cls-1" d="M367.05,429.78l3.88-3.51a.93.93,0,0,0,.31-.69V420c0-3.63-8.86-5.29-17.09-5.29s-17.09,1.66-17.09,5.29v5.59a.93.93,0,0,0,.31.69l13.36,12.15V448a.94.94,0,0,0,.44.79,1,1,0,0,0,.49.14.87.87,0,0,0,.42-.1l5-2.48a.93.93,0,0,0,.52-.84v-.54a9.62,9.62,0,1,0,9.48-15.14Zm-12.9-13.21c9.85,0,15.22,2.26,15.22,3.42s-5.37,3.41-15.22,3.41-15.23-2.25-15.23-3.41S344.3,416.57,354.15,416.57Zm1.55,23.8v4.52l-3.1,1.55V438a.93.93,0,0,0-.31-.69l-13.37-12.15v-2.62c3,1.85,9.28,2.72,15.23,2.72s12.2-.87,15.22-2.72v2.61l-4.91,4.45s0,0,0,.05a9.66,9.66,0,0,0-8.72,9.59,8.69,8.69,0,0,0,.05.89A1,1,0,0,0,355.7,440.37Zm9.63,6.65a7.77,7.77,0,1,1,7.77-7.77A7.78,7.78,0,0,1,365.33,447Z" transform="translate(-337.06 -414.7)"/><path class="cls-1" d="M369.06,438.32h-2.79v-2.8a.94.94,0,0,0-1.87,0v2.8h-2.79a.93.93,0,1,0,0,1.86h2.79V443a.94.94,0,0,0,1.87,0v-2.8h2.79a.93.93,0,0,0,0-1.86Z" transform="translate(-337.06 -414.7)"/></svg>