<svg id="Слой_1" data-name="Слой 1" xmlns="http://www.w3.org/2000/svg" viewBox="0 0 7.5 12"><defs><style>.cls-1{fill:#bed681;}</style></defs><path class="cls-1" d="M281,420.93v9.75a1.13,1.13,0,0,1-1.12,1.13h-5.25a1.13,1.13,0,0,1-1.13-1.13v-9.75a1.12,1.12,0,0,1,1.13-1.12h5.25A1.12,1.12,0,0,1,281,420.93Zm-1.12.28a.29.29,0,0,0-.29-.28h-4.68a.28.28,0,0,0-.28.28v7.32a.28.28,0,0,0,.28.28h4.68a.29.29,0,0,0,.29-.28Zm-1.88,9.1a.75.75,0,0,0-1.5,0,.75.75,0,0,0,1.5,0Z" transform="translate(-273.45 -419.81)"/></svg>