<svg id="Слой_1" data-name="Слой 1" xmlns="http://www.w3.org/2000/svg" viewBox="0 0 7.88 14"><defs><style>.cls-1{fill:#bed681;}</style></defs><path class="cls-1" d="M281.14,422.72a3.94,3.94,0,1,1-3.94-3.94A3.94,3.94,0,0,1,281.14,422.72Zm-3.61-2.19a.33.33,0,0,0-.33-.33,2.51,2.51,0,0,0-2.51,2.52.32.32,0,0,0,.32.33.33.33,0,0,0,.33-.33,1.86,1.86,0,0,1,1.86-1.86A.33.33,0,0,0,277.53,420.53Zm-.33,7a5.14,5.14,0,0,0,.88-.08v4.28l-.61.91a.33.33,0,0,1-.54,0l-.6-.91v-4.28A4.94,4.94,0,0,0,277.2,427.53Z" transform="translate(-273.26 -418.78)"/></svg>