<svg id="Слой_1" data-name="Слой 1" xmlns="http://www.w3.org/2000/svg" viewBox="0 0 217.66 53.28"><defs><style>.cls-1{fill:#fff;}</style></defs><path class="cls-1" d="M51.38,327.53v26.64l23.07,13.32,23.08-13.32V327.53L74.45,314.21Zm39.22,4v18.65L74.45,359.5,58.3,350.18V331.53l16.15-9.32Z" transform="translate(-51.38 -314.21)"/><polygon class="cls-1" points="74.19 30.95 63.45 30.95 63.45 26.23 72.94 26.23 72.94 23.92 63.45 23.92 63.45 19.13 73.55 19.13 73.55 16.82 59.68 16.82 59.68 33.28 74.19 33.28 74.19 30.95"/><polygon class="cls-1" points="89.82 21.53 85.58 21.53 80.43 26.8 80.43 21.53 76.94 21.53 76.94 33.28 80.43 33.28 80.43 30.36 82.02 28.84 86.22 33.28 90.66 33.28 84.01 26.97 89.82 21.53"/><polygon class="cls-1" points="99.01 26.97 104.81 21.53 100.58 21.53 95.43 26.8 95.43 21.53 91.94 21.53 91.94 33.28 95.43 33.28 95.43 30.36 97.02 28.84 101.21 33.28 105.66 33.28 99.01 26.97"/><path class="cls-1" d="M159.61,346a6.67,6.67,0,0,0,2.28,1.3,9.12,9.12,0,0,0,3.05.48,9.32,9.32,0,0,0,3.09-.48,6.63,6.63,0,0,0,2.29-1.3,5.55,5.55,0,0,0,1.43-2,6.08,6.08,0,0,0,0-4.83,5.64,5.64,0,0,0-1.43-2,6.79,6.79,0,0,0-2.29-1.3,9.33,9.33,0,0,0-3.09-.47,9.13,9.13,0,0,0-3.05.47,6.84,6.84,0,0,0-2.28,1.3,5.51,5.51,0,0,0-1.43,2,6.08,6.08,0,0,0,0,4.83A5.43,5.43,0,0,0,159.61,346Zm1.91-5.79a3.24,3.24,0,0,1,.6-1.22,3,3,0,0,1,1.11-.86,4,4,0,0,1,1.71-.33,4,4,0,0,1,1.72.33,3.16,3.16,0,0,1,1.12.86,3.43,3.43,0,0,1,.62,1.22,5.33,5.33,0,0,1,0,2.82,3.52,3.52,0,0,1-.62,1.22,3.07,3.07,0,0,1-1.12.87,4,4,0,0,1-1.72.33,4,4,0,0,1-1.71-.33,2.88,2.88,0,0,1-1.11-.87,3.32,3.32,0,0,1-.6-1.22,5.61,5.61,0,0,1,0-2.82Z" transform="translate(-51.38 -314.21)"/><polygon class="cls-1" points="146.96 33.28 150.73 33.28 150.73 16.82 146.96 16.82 146.96 23.92 137.01 23.92 137.01 16.82 133.24 16.82 133.24 33.28 137.01 33.28 137.01 26.23 146.96 26.23 146.96 33.28"/><polygon class="cls-1" points="164.44 21.53 160.56 30.19 156.69 21.53 152.85 21.53 158.87 33.28 162.25 33.28 168.27 21.53 164.44 21.53"/><path class="cls-1" d="M223.06,346a6.72,6.72,0,0,0,2.29,1.3,9.08,9.08,0,0,0,3.05.48,9.26,9.26,0,0,0,3.08-.48,6.67,6.67,0,0,0,2.3-1.3,5.55,5.55,0,0,0,1.43-2,6.08,6.08,0,0,0,0-4.83,5.64,5.64,0,0,0-1.43-2,6.84,6.84,0,0,0-2.3-1.3,9.27,9.27,0,0,0-3.08-.47,9.09,9.09,0,0,0-3.05.47,6.89,6.89,0,0,0-2.29,1.3,5.77,5.77,0,0,0-1.43,2,6.2,6.2,0,0,0,0,4.83A5.67,5.67,0,0,0,223.06,346ZM225,340.2a3.38,3.38,0,0,1,.59-1.22,3.07,3.07,0,0,1,1.12-.86,4,4,0,0,1,1.71-.33,4,4,0,0,1,1.72.33,3.16,3.16,0,0,1,1.12.86,3.26,3.26,0,0,1,.61,1.22,5.33,5.33,0,0,1,0,2.82,3.34,3.34,0,0,1-.61,1.22,3.07,3.07,0,0,1-1.12.87,4,4,0,0,1-1.72.33,4,4,0,0,1-1.71-.33,3,3,0,0,1-1.12-.87A3.46,3.46,0,0,1,225,343a5.61,5.61,0,0,1,0-2.82Z" transform="translate(-51.38 -314.21)"/><polygon class="cls-1" points="182.61 16.82 178.16 16.82 175.28 19.98 177.76 19.98 182.61 16.82"/><path class="cls-1" d="M252.38,343.6l-3.39-.87a3.53,3.53,0,0,1-.41,1.36,3.1,3.1,0,0,1-1,.93,3.46,3.46,0,0,1-1.86.42,4.71,4.71,0,0,1-1.82-.31,3.34,3.34,0,0,1-1.24-.81,3.18,3.18,0,0,1-.7-1.17,4,4,0,0,1-.22-1.33l10.29.21a6,6,0,0,0,0-1.73,5.17,5.17,0,0,0-.75-2.18,5.51,5.51,0,0,0-2.05-1.86,8,8,0,0,0-3.89-.79,9,9,0,0,0-3,.46,6.51,6.51,0,0,0-2.25,1.29,5.57,5.57,0,0,0-1.42,1.95,6,6,0,0,0-.5,2.44,5.65,5.65,0,0,0,2.15,4.57,6.88,6.88,0,0,0,2.28,1.19,9,9,0,0,0,2.71.4,8.54,8.54,0,0,0,3.65-.66,7,7,0,0,0,2.13-1.42A5.91,5.91,0,0,0,252.38,343.6Zm-9.82-4.67a3.29,3.29,0,0,1,1-.85,3.4,3.4,0,0,1,1.74-.39,3.33,3.33,0,0,1,1.68.36,3.23,3.23,0,0,1,.93.77,3.36,3.36,0,0,1,.51,1.14l-6.46.21A3.77,3.77,0,0,1,242.56,338.93Z" transform="translate(-51.38 -314.21)"/><path class="cls-1" d="M267.84,345.69a5.91,5.91,0,0,0,1.21-2.09l-3.39-.87a3.53,3.53,0,0,1-.41,1.36,3.1,3.1,0,0,1-1,.93,3.46,3.46,0,0,1-1.86.42,4.71,4.71,0,0,1-1.82-.31,3.26,3.26,0,0,1-1.24-.81,3.18,3.18,0,0,1-.7-1.17,4,4,0,0,1-.22-1.33l10.29.21a6.37,6.37,0,0,0,0-1.73,5.17,5.17,0,0,0-.75-2.18,5.47,5.47,0,0,0-2.06-1.86,7.93,7.93,0,0,0-3.88-.79,9,9,0,0,0-3,.46,6.51,6.51,0,0,0-2.25,1.29,5.57,5.57,0,0,0-1.42,1.95,6,6,0,0,0-.5,2.44,5.65,5.65,0,0,0,2.15,4.57,6.79,6.79,0,0,0,2.28,1.19,9,9,0,0,0,2.71.4,8.54,8.54,0,0,0,3.65-.66A7,7,0,0,0,267.84,345.69Zm-8.61-6.76a3.29,3.29,0,0,1,1-.85,3.4,3.4,0,0,1,1.74-.39,3.33,3.33,0,0,1,1.68.36,3.23,3.23,0,0,1,.93.77,3.36,3.36,0,0,1,.51,1.14l-6.46.21A3.77,3.77,0,0,1,259.23,338.93Z" transform="translate(-51.38 -314.21)"/><path class="cls-1" d="M111.81,355.65V354.5h-.75v5.85h.79v-3a2.26,2.26,0,0,1,.52-1.59,1.9,1.9,0,0,1,1.45-.56H114v-.77a2.82,2.82,0,0,0-1.36.3A2,2,0,0,0,111.81,355.65Z" transform="translate(-51.38 -314.21)"/><path class="cls-1" d="M119.1,354.84a3,3,0,0,0-2.92,0,2.67,2.67,0,0,0-1,1.05,3.27,3.27,0,0,0-.37,1.54,3,3,0,0,0,.39,1.53,2.71,2.71,0,0,0,1.09,1.06,3.18,3.18,0,0,0,1.59.39,3.11,3.11,0,0,0,1.28-.25,2.51,2.51,0,0,0,1-.71l-.45-.51a2.14,2.14,0,0,1-.79.57,2.48,2.48,0,0,1-1,.2,2.35,2.35,0,0,1-1.6-.56,2.14,2.14,0,0,1-.7-1.48h4.89v-.24a3.21,3.21,0,0,0-.36-1.54A2.76,2.76,0,0,0,119.1,354.84Zm-3.53,2.24a2.12,2.12,0,0,1,.65-1.4,2.15,2.15,0,0,1,2.85,0,2.12,2.12,0,0,1,.65,1.4Z" transform="translate(-51.38 -314.21)"/><rect class="cls-1" x="70.7" y="37.89" width="0.79" height="8.25"/><path class="cls-1" d="M125.48,352.1a.59.59,0,0,0-.42.17.53.53,0,0,0-.16.39.54.54,0,0,0,.16.4.59.59,0,0,0,.42.17.57.57,0,0,0,.41-.17.56.56,0,0,0,.16-.41.49.49,0,0,0-.16-.38A.57.57,0,0,0,125.48,352.1Z" transform="translate(-51.38 -314.21)"/><rect class="cls-1" x="73.69" y="40.29" width="0.79" height="5.85"/><path class="cls-1" d="M130.11,354.46a4,4,0,0,0-1.31.21,3.06,3.06,0,0,0-1.07.58l.36.59a2.61,2.61,0,0,1,.88-.51,3.15,3.15,0,0,1,1.06-.18,1.79,1.79,0,0,1,1.24.39,1.52,1.52,0,0,1,.42,1.15v.36h-1.86a2.62,2.62,0,0,0-1.72.46,1.62,1.62,0,0,0,0,2.43,2.44,2.44,0,0,0,1.56.47,2.79,2.79,0,0,0,1.23-.26,1.86,1.86,0,0,0,.78-.71v.91h.76v-3.62a2.25,2.25,0,0,0-.61-1.7A2.5,2.5,0,0,0,130.11,354.46Zm1.58,4.14a1.89,1.89,0,0,1-.71.88,2.12,2.12,0,0,1-1.15.3,1.76,1.76,0,0,1-1.09-.29,1,1,0,0,1-.39-.81c0-.69.5-1,1.5-1h1.84Z" transform="translate(-51.38 -314.21)"/><path class="cls-1" d="M139.12,354.83a3,3,0,0,0-1.49-.37,2.83,2.83,0,0,0-1.28.29,2.52,2.52,0,0,0-.94.87V352.1h-.79v8.25h.76V359.2a2.46,2.46,0,0,0,.94.9,2.84,2.84,0,0,0,1.31.31,3,3,0,0,0,1.49-.38,2.61,2.61,0,0,0,1-1.06,3.11,3.11,0,0,0,.38-1.54,3.18,3.18,0,0,0-.38-1.55A2.65,2.65,0,0,0,139.12,354.83Zm.35,3.79a1.94,1.94,0,0,1-.78.8,2.29,2.29,0,0,1-2.23,0,2,2,0,0,1-.78-.8,2.58,2.58,0,0,1-.28-1.19,2.55,2.55,0,0,1,.28-1.19,2,2,0,0,1,.78-.81,2.36,2.36,0,0,1,2.23,0,2,2,0,0,1,.78.81,2.44,2.44,0,0,1,.29,1.19A2.47,2.47,0,0,1,139.47,358.62Z" transform="translate(-51.38 -314.21)"/><rect class="cls-1" x="90.78" y="37.89" width="0.79" height="8.25"/><path class="cls-1" d="M148.87,354.84a2.83,2.83,0,0,0-1.45-.38,2.93,2.93,0,0,0-1.47.38,2.71,2.71,0,0,0-1,1.05,3.16,3.16,0,0,0-.37,1.54A3,3,0,0,0,145,359,2.75,2.75,0,0,0,146,360a3.24,3.24,0,0,0,1.6.39,3.18,3.18,0,0,0,1.28-.25,2.47,2.47,0,0,0,1-.71l-.44-.51a2.22,2.22,0,0,1-.79.57,2.51,2.51,0,0,1-1,.2,2.33,2.33,0,0,1-1.6-.56,2.1,2.1,0,0,1-.7-1.48h4.89v-.24a3.11,3.11,0,0,0-.37-1.54A2.62,2.62,0,0,0,148.87,354.84Zm-3.52,2.24a2.12,2.12,0,0,1,.65-1.4,2.14,2.14,0,0,1,2.84,0,2.07,2.07,0,0,1,.65,1.4Z" transform="translate(-51.38 -314.21)"/><path class="cls-1" d="M158.5,354.84a3,3,0,0,0-2.92,0,2.71,2.71,0,0,0-1,1.05,3.16,3.16,0,0,0-.37,1.54,3,3,0,0,0,.38,1.53,2.71,2.71,0,0,0,1.09,1.06,3.44,3.44,0,0,0,2.88.14,2.47,2.47,0,0,0,1-.71l-.45-.51a2.19,2.19,0,0,1-.78.57,2.55,2.55,0,0,1-1,.2,2.37,2.37,0,0,1-1.61-.56,2.14,2.14,0,0,1-.7-1.48h4.89l0-.24a3.22,3.22,0,0,0-.37-1.54A2.69,2.69,0,0,0,158.5,354.84ZM155,357.08a2.17,2.17,0,0,1,.65-1.4,2.15,2.15,0,0,1,2.85,0,2.12,2.12,0,0,1,.65,1.4Z" transform="translate(-51.38 -314.21)"/><path class="cls-1" d="M162.77,355.43a2.29,2.29,0,0,1,1.14-.28,2.13,2.13,0,0,1,1,.22,1.82,1.82,0,0,1,.73.65l.59-.4a2.26,2.26,0,0,0-.94-.87,3.11,3.11,0,0,0-1.35-.29,3.18,3.18,0,0,0-1.55.38,2.7,2.7,0,0,0-1.07,1.05,3.24,3.24,0,0,0,0,3.08,2.73,2.73,0,0,0,1.07,1.06,3.18,3.18,0,0,0,1.55.38,3,3,0,0,0,1.35-.3,2.17,2.17,0,0,0,.94-.86l-.59-.4a1.89,1.89,0,0,1-.73.65,2.25,2.25,0,0,1-1,.21,2.3,2.3,0,0,1-1.14-.29,2,2,0,0,1-.79-.8,2.41,2.41,0,0,1-.28-1.19,2.43,2.43,0,0,1,.28-1.19A2,2,0,0,1,162.77,355.43Z" transform="translate(-51.38 -314.21)"/><path class="cls-1" d="M171.56,354.84a3.25,3.25,0,0,0-3.05,0,2.74,2.74,0,0,0-1.06,1.05,3.07,3.07,0,0,0-.39,1.54,3,3,0,0,0,.39,1.53,2.77,2.77,0,0,0,1.06,1.06,3.18,3.18,0,0,0,3.05,0,2.77,2.77,0,0,0,1.06-1.06,3,3,0,0,0,.38-1.53,3.06,3.06,0,0,0-.38-1.54A2.74,2.74,0,0,0,171.56,354.84Zm.37,3.78a2,2,0,0,1-.78.8,2.29,2.29,0,0,1-2.23,0,2,2,0,0,1-.78-.8,2.46,2.46,0,0,1-.28-1.19,2.43,2.43,0,0,1,.28-1.19,2,2,0,0,1,.78-.81,2.36,2.36,0,0,1,2.23,0,2,2,0,0,1,.78.81,2.54,2.54,0,0,1,.27,1.19A2.57,2.57,0,0,1,171.93,358.62Z" transform="translate(-51.38 -314.21)"/><path class="cls-1" d="M180.48,357.39c-.28-.08-.65-.17-1.12-.26a7.78,7.78,0,0,1-.89-.2,1.41,1.41,0,0,1-.54-.29.69.69,0,0,1-.21-.53.79.79,0,0,1,.38-.7,2,2,0,0,1,1.14-.27,3,3,0,0,1,1.72.5l.35-.64a3.28,3.28,0,0,0-.94-.39,4.39,4.39,0,0,0-1.13-.15,2.75,2.75,0,0,0-1.7.47,1.43,1.43,0,0,0-.61,1.2,1.32,1.32,0,0,0,.3.92,1.71,1.71,0,0,0,.74.47,7.31,7.31,0,0,0,1.15.27,8.17,8.17,0,0,1,.85.19,1.26,1.26,0,0,1,.54.28.63.63,0,0,1,.21.5.8.8,0,0,1-.39.71,2.25,2.25,0,0,1-1.18.25,3.48,3.48,0,0,1-1.16-.19,3.06,3.06,0,0,1-.92-.47l-.35.62a2.89,2.89,0,0,0,1,.52,4.44,4.44,0,0,0,1.36.21,3.06,3.06,0,0,0,1.78-.45,1.44,1.44,0,0,0,.64-1.22,1.26,1.26,0,0,0-.3-.89A1.69,1.69,0,0,0,180.48,357.39Z" transform="translate(-51.38 -314.21)"/><path class="cls-1" d="M187.44,357.57a2.18,2.18,0,0,1-.53,1.56,1.91,1.91,0,0,1-1.46.57,1.72,1.72,0,0,1-1.3-.48,2,2,0,0,1-.45-1.4V354.5h-.79v3.39a2.26,2.26,0,0,0,2.46,2.52,2.54,2.54,0,0,0,1.25-.3,2.14,2.14,0,0,0,.86-.83v1.07h.75V354.5h-.79Z" transform="translate(-51.38 -314.21)"/><path class="cls-1" d="M194.94,354.83a3,3,0,0,0-1.48-.37,2.74,2.74,0,0,0-1.32.31,2.51,2.51,0,0,0-.94.89V354.5h-.76v8h.79v-3.26a2.42,2.42,0,0,0,.94.86,2.73,2.73,0,0,0,1.29.3A3,3,0,0,0,195,360a2.57,2.57,0,0,0,1-1,3.35,3.35,0,0,0,0-3.1A2.65,2.65,0,0,0,194.94,354.83Zm.35,3.79a1.94,1.94,0,0,1-.78.8,2.29,2.29,0,0,1-2.23,0,2,2,0,0,1-.78-.8,2.58,2.58,0,0,1-.28-1.19,2.55,2.55,0,0,1,.28-1.19,2.07,2.07,0,0,1,.78-.8,2.29,2.29,0,0,1,2.23,0,2,2,0,0,1,.78.8,2.44,2.44,0,0,1,.29,1.19A2.47,2.47,0,0,1,195.29,358.62Z" transform="translate(-51.38 -314.21)"/><path class="cls-1" d="M202.48,354.83a3,3,0,0,0-1.49-.37,2.74,2.74,0,0,0-1.32.31,2.51,2.51,0,0,0-.94.89V354.5H198v8h.79v-3.26a2.35,2.35,0,0,0,.94.86,2.72,2.72,0,0,0,1.28.3,3,3,0,0,0,1.5-.38,2.63,2.63,0,0,0,1-1,3.43,3.43,0,0,0,0-3.1A2.79,2.79,0,0,0,202.48,354.83Zm.35,3.79a2,2,0,0,1-.78.8,2.24,2.24,0,0,1-1.11.29,2.2,2.2,0,0,1-1.12-.29,2,2,0,0,1-.78-.8,2.46,2.46,0,0,1-.28-1.19,2.43,2.43,0,0,1,.28-1.19,2.07,2.07,0,0,1,.78-.8,2.2,2.2,0,0,1,1.12-.29,2.24,2.24,0,0,1,1.11.29,2.07,2.07,0,0,1,.78.8,2.43,2.43,0,0,1,.28,1.19A2.46,2.46,0,0,1,202.83,358.62Z" transform="translate(-51.38 -314.21)"/><rect class="cls-1" x="154.13" y="37.89" width="0.79" height="8.25"/><path class="cls-1" d="M210.44,359.47l-2.2-5h-.82l2.61,5.84-.26.57a2,2,0,0,1-.53.75,1.05,1.05,0,0,1-.68.23,1.47,1.47,0,0,1-1.07-.45l-.36.59a1.66,1.66,0,0,0,.63.4,2.26,2.26,0,0,0,.79.13,1.82,1.82,0,0,0,1.12-.34,2.74,2.74,0,0,0,.82-1.17l2.93-6.55h-.78Z" transform="translate(-51.38 -314.21)"/><path class="cls-1" d="M218.72,355.43a2.29,2.29,0,0,1,1.14-.28,2.13,2.13,0,0,1,1,.22,1.75,1.75,0,0,1,.73.65l.59-.4a2.26,2.26,0,0,0-.94-.87,3,3,0,0,0-1.35-.29,3.2,3.2,0,0,0-1.55.38,2.77,2.77,0,0,0-1.07,1.05,3.24,3.24,0,0,0,0,3.08,2.79,2.79,0,0,0,1.07,1.06,3.2,3.2,0,0,0,1.55.38,3,3,0,0,0,1.35-.3,2.17,2.17,0,0,0,.94-.86l-.59-.4a1.83,1.83,0,0,1-.73.65,2.25,2.25,0,0,1-1,.21,2.3,2.3,0,0,1-1.14-.29,1.94,1.94,0,0,1-.78-.8,2.41,2.41,0,0,1-.29-1.19,2.44,2.44,0,0,1,.29-1.19A2,2,0,0,1,218.72,355.43Z" transform="translate(-51.38 -314.21)"/><path class="cls-1" d="M227.51,354.84a3.23,3.23,0,0,0-3,0,2.7,2.7,0,0,0-1.07,1.05,3.07,3.07,0,0,0-.39,1.54,3,3,0,0,0,.39,1.53,2.73,2.73,0,0,0,1.07,1.06,3.16,3.16,0,0,0,3,0,2.7,2.7,0,0,0,1.06-1.06,3,3,0,0,0,.39-1.53,3.07,3.07,0,0,0-.39-1.54A2.68,2.68,0,0,0,227.51,354.84Zm.37,3.78a2,2,0,0,1-.77.8,2.22,2.22,0,0,1-1.12.29,2.2,2.2,0,0,1-1.12-.29,2,2,0,0,1-.78-.8,2.46,2.46,0,0,1-.28-1.19,2.43,2.43,0,0,1,.28-1.19,2,2,0,0,1,.78-.81,2.19,2.19,0,0,1,1.12-.28,2.22,2.22,0,0,1,1.12.28,2,2,0,0,1,.77.81,2.55,2.55,0,0,1,.28,1.19A2.58,2.58,0,0,1,227.88,358.62Z" transform="translate(-51.38 -314.21)"/><path class="cls-1" d="M237.86,354.46a2.82,2.82,0,0,0-1.38.33,2.24,2.24,0,0,0-.93.9,2,2,0,0,0-.81-.92,2.47,2.47,0,0,0-1.27-.31,2.77,2.77,0,0,0-1.28.29,2.15,2.15,0,0,0-.87.82V354.5h-.75v5.85h.79v-3.07a2.19,2.19,0,0,1,.52-1.55,1.9,1.9,0,0,1,1.43-.56,1.61,1.61,0,0,1,1.25.48A2,2,0,0,1,235,357v3.31h.79v-3.07a2.23,2.23,0,0,1,.52-1.55,1.89,1.89,0,0,1,1.44-.56,1.61,1.61,0,0,1,1.24.48,2,2,0,0,1,.44,1.39v3.31h.79V357a2.56,2.56,0,0,0-.63-1.87A2.34,2.34,0,0,0,237.86,354.46Z" transform="translate(-51.38 -314.21)"/><path class="cls-1" d="M246.86,354.83a3,3,0,0,0-1.49-.37,2.67,2.67,0,0,0-1.31.31,2.44,2.44,0,0,0-.94.89V354.5h-.76v8h.79v-3.26a2.35,2.35,0,0,0,.94.86,2.72,2.72,0,0,0,1.28.3,3,3,0,0,0,1.5-.38,2.63,2.63,0,0,0,1-1,3.43,3.43,0,0,0,0-3.1A2.72,2.72,0,0,0,246.86,354.83Zm.35,3.79a2,2,0,0,1-.78.8,2.29,2.29,0,0,1-2.23,0,2,2,0,0,1-.78-.8,2.46,2.46,0,0,1-.28-1.19,2.43,2.43,0,0,1,.28-1.19,2.07,2.07,0,0,1,.78-.8,2.29,2.29,0,0,1,2.23,0,2.07,2.07,0,0,1,.78.8,2.44,2.44,0,0,1,.29,1.19A2.47,2.47,0,0,1,247.21,358.62Z" transform="translate(-51.38 -314.21)"/><path class="cls-1" d="M251.91,354.46a4,4,0,0,0-1.31.21,3.06,3.06,0,0,0-1.07.58l.36.59a2.67,2.67,0,0,1,.87-.51,3.21,3.21,0,0,1,1.07-.18,1.75,1.75,0,0,1,1.23.39,1.49,1.49,0,0,1,.43,1.15v.36h-1.86a2.62,2.62,0,0,0-1.72.46,1.48,1.48,0,0,0-.54,1.2,1.52,1.52,0,0,0,.58,1.23,2.44,2.44,0,0,0,1.56.47,2.79,2.79,0,0,0,1.23-.26,1.86,1.86,0,0,0,.78-.71v.91h.76v-3.62a2.21,2.21,0,0,0-.62-1.7A2.46,2.46,0,0,0,251.91,354.46Zm1.58,4.14a2,2,0,0,1-.71.88,2.12,2.12,0,0,1-1.15.3,1.74,1.74,0,0,1-1.09-.29,1,1,0,0,1-.39-.81c0-.69.5-1,1.5-1h1.84Z" transform="translate(-51.38 -314.21)"/><path class="cls-1" d="M259.4,354.46a3,3,0,0,0-1.33.29,2.23,2.23,0,0,0-.89.83V354.5h-.76v5.85h.79v-3.07a2.11,2.11,0,0,1,.55-1.55,2,2,0,0,1,1.5-.56,1.72,1.72,0,0,1,1.3.48A2,2,0,0,1,261,357v3.31h.79V357a2.52,2.52,0,0,0-.65-1.86A2.37,2.37,0,0,0,259.4,354.46Z" transform="translate(-51.38 -314.21)"/><path class="cls-1" d="M265.77,359.47l-2.2-5h-.82l2.61,5.84-.26.57a2,2,0,0,1-.53.75,1.05,1.05,0,0,1-.68.23,1.47,1.47,0,0,1-1.07-.45l-.36.59a1.66,1.66,0,0,0,.63.4,2.26,2.26,0,0,0,.79.13,1.82,1.82,0,0,0,1.12-.34,2.74,2.74,0,0,0,.82-1.17l2.93-6.55H268Z" transform="translate(-51.38 -314.21)"/><polygon class="cls-1" points="9.23 21.74 9.23 34.79 22.8 42.63 22.8 26.96 9.23 19.13 9.23 21.74"/><polygon class="cls-1" points="9.23 18.65 23.07 26.64 36.91 18.65 23.07 10.66 9.23 18.65"/><polygon class="cls-1" points="23.35 26.96 23.35 42.63 36.91 34.79 36.91 21.74 36.91 19.13 23.35 26.96"/></svg>