<svg id="Слой_1" data-name="Слой 1" xmlns="http://www.w3.org/2000/svg" viewBox="0 0 12 12"><defs><style>.cls-1{fill:#bed681;}</style></defs><path class="cls-1" d="M283.2,424.53v6.15a1.13,1.13,0,0,1-1.12,1.13h-9.75a1.13,1.13,0,0,1-1.13-1.13v-6.15a1.13,1.13,0,0,1,.41-.87l3.17-2.54a2.89,2.89,0,0,1,4.84,0c.55.43,3.06,2.45,3.17,2.54A1.13,1.13,0,0,1,283.2,424.53Zm-1.12.07a.11.11,0,0,0-.06-.11l-3.1-2.5c-.41-.32-1.16-1.06-1.72-1.06s-1.29.73-1.72,1.06l-3.1,2.5s-.05.06-.05.11v5.94a.14.14,0,0,0,.14.14h9.47a.14.14,0,0,0,.14-.14Zm-.79,1.94c-.68.54-1.39,1.12-1.67,1.33a4.26,4.26,0,0,1-2.42,1.31,4.31,4.31,0,0,1-2.42-1.31l-1.66-1.33a.28.28,0,0,1,0-.4l.35-.43a.29.29,0,0,1,.4,0l1.65,1.32c.41.33,1.17,1.07,1.72,1.07s1.3-.73,1.72-1.07l1.66-1.32a.27.27,0,0,1,.39,0l.36.43A.29.29,0,0,1,281.29,426.54Z" transform="translate(-271.2 -419.81)"/></svg>