<svg id="Слой_1" data-name="Слой 1" xmlns="http://www.w3.org/2000/svg" viewBox="0 0 21.02 21.11"><defs><style>.cls-1{fill:#fff;}</style></defs><g id="ig_instagram_insta_photo" data-name="ig instagram insta photo"><path class="cls-1" d="M301.88,418.52a.86.86,0,0,0-.5,1.11h0a3.42,3.42,0,1,1-2-2,.85.85,0,0,0,1.1-.49.86.86,0,0,0-.49-1.11,5.13,5.13,0,1,0,3,2.95.86.86,0,0,0-1.11-.49Z" transform="translate(-287.56 -410.27)"/><circle class="cls-1" cx="16.49" cy="4.56" r="0.86"/><path class="cls-1" d="M308.34,414.82a4.29,4.29,0,0,0-4.2-4.28h0a65.76,65.76,0,0,0-12.07,0,4.29,4.29,0,0,0-4.28,4.21,80.91,80.91,0,0,0,0,12.06,4.29,4.29,0,0,0,4.2,4.28h0c2,.18,4.05.29,6.08.29s4-.1,6-.29a4.29,4.29,0,0,0,4.24-4.21A75.87,75.87,0,0,0,308.34,414.82Zm-1.71,12a2.57,2.57,0,0,1-2.57,2.56H304a60.66,60.66,0,0,1-11.9,0,2.55,2.55,0,0,1-2.56-2.56v-.07a79,79,0,0,1,0-11.92,2.56,2.56,0,0,1,2.56-2.57h.08q2.94-.27,5.91-.28t6,.28a2.55,2.55,0,0,1,2.57,2.56v.07A74.12,74.12,0,0,1,306.63,426.81Z" transform="translate(-287.56 -410.27)"/></g></svg>