<svg id="Слой_1" data-name="Слой 1" xmlns="http://www.w3.org/2000/svg" viewBox="0 0 13.95 9.76"><defs><style>.cls-1{fill:#4f924b;}</style></defs><path class="cls-1" d="M353.22,428.32h9.07a.7.7,0,0,0,0-1.4h-9.07a.7.7,0,0,0,0,1.4Z" transform="translate(-349.04 -426.92)"/><path class="cls-1" d="M362.29,431.11h-9.07a.7.7,0,0,0,0,1.39h9.07a.7.7,0,1,0,0-1.39Z" transform="translate(-349.04 -426.92)"/><path class="cls-1" d="M362.29,435.29h-9.07a.7.7,0,0,0,0,1.39h9.07a.7.7,0,1,0,0-1.39Z" transform="translate(-349.04 -426.92)"/><path class="cls-1" d="M350,427a.65.65,0,0,0-.53,0,.68.68,0,0,0-.23.14.91.91,0,0,0-.15.23.86.86,0,0,0,0,.27.74.74,0,0,0,.2.49.69.69,0,0,0,1,0,.7.7,0,0,0,.2-.49.74.74,0,0,0-.2-.5A.68.68,0,0,0,350,427Z" transform="translate(-349.04 -426.92)"/><path class="cls-1" d="M349.47,431.16a.7.7,0,0,0-.23.15.44.44,0,0,0-.08.11.47.47,0,0,0-.07.12.5.5,0,0,0,0,.13s0,.09,0,.13a.65.65,0,0,0,0,.27,1.14,1.14,0,0,0,.15.23.71.71,0,0,0,1,0,1.14,1.14,0,0,0,.15-.23.86.86,0,0,0,.05-.27.68.68,0,0,0-.2-.49A.73.73,0,0,0,349.47,431.16Z" transform="translate(-349.04 -426.92)"/><path class="cls-1" d="M349.24,435.49a.77.77,0,0,0-.2.5.68.68,0,0,0,.2.49.71.71,0,0,0,1,0,.68.68,0,0,0,.2-.49.7.7,0,0,0-1.19-.5Z" transform="translate(-349.04 -426.92)"/></svg>