<svg id="Слой_1" data-name="Слой 1" xmlns="http://www.w3.org/2000/svg" viewBox="0 0 19.71 12.13"><defs><style>.cls-1{fill:#fff;}</style></defs><path class="cls-1" d="M541.29,444.87h18.19a.76.76,0,0,0,0-1.52H541.29a.76.76,0,0,0,0,1.52Z" transform="translate(-540.53 -443.35)"/><path class="cls-1" d="M559.48,448.66H541.29a.76.76,0,0,0-.76.76.75.75,0,0,0,.76.75h18.19a.75.75,0,0,0,.76-.75A.76.76,0,0,0,559.48,448.66Z" transform="translate(-540.53 -443.35)"/><path class="cls-1" d="M559.48,454H541.29a.76.76,0,1,0,0,1.52h18.19a.76.76,0,1,0,0-1.52Z" transform="translate(-540.53 -443.35)"/></svg>