<svg id="Слой_1" data-name="Слой 1" xmlns="http://www.w3.org/2000/svg" viewBox="0 0 19.5 12"><defs><style>.cls-1{fill:#fff;}</style></defs><g id="Layer_2" data-name="Layer 2"><path class="cls-1" d="M373.44,390.05h-18a.75.75,0,0,1,0-1.5h18a.75.75,0,0,1,0,1.5Z" transform="translate(-354.69 -388.55)"/><path class="cls-1" d="M373.44,395.3h-18a.75.75,0,0,1,0-1.5h18a.75.75,0,0,1,0,1.5Z" transform="translate(-354.69 -388.55)"/><path class="cls-1" d="M373.44,400.55h-18a.75.75,0,0,1,0-1.5h18a.75.75,0,0,1,0,1.5Z" transform="translate(-354.69 -388.55)"/></g></svg>