<svg id="Слой_1" data-name="Слой 1" xmlns="http://www.w3.org/2000/svg" viewBox="0 0 9.9 9.9"><defs><style>.cls-1{fill:#719b6f;}</style></defs><path class="cls-1" d="M369.39,390.71a1.06,1.06,0,0,0-1.11-1.11c-1.85,0-3.71,0-5.57,0a1.05,1.05,0,0,0-1.1,1.11v1h-1a1.06,1.06,0,0,0-1.13,1.11q0,2.78,0,5.55a1.06,1.06,0,0,0,1.12,1.12h5.51a1.07,1.07,0,0,0,1.15-1.16v-1h1a1.06,1.06,0,0,0,1.15-1.14Zm-3.3,8.08h-5.43c-.35,0-.47-.12-.47-.46v-5.44c0-.35.12-.46.47-.46h5.44c.34,0,.46.11.46.46v5.44C366.56,398.67,366.44,398.79,366.09,398.79Zm2.1-2.12h-.86l-.06,0v-3.76a1.07,1.07,0,0,0-1.17-1.16h-3.78c0-.38,0-.72,0-1.07s.15-.34.4-.35h5.48c.37,0,.48.12.48.49v5.39C368.68,396.56,368.57,396.67,368.19,396.67Z" transform="translate(-359.48 -389.6)"/><path class="cls-1" d="M363.72,393.85H363v1.41h-1.4v.7H363v1.41h.7V396h1.4v-.7h-1.41Z" transform="translate(-359.48 -389.6)"/></svg>