<svg id="Слой_1" data-name="Слой 1" xmlns="http://www.w3.org/2000/svg" viewBox="0 0 42.65 42.65"><defs><style>.cls-1{fill:#4f924b;}.cls-2{fill:#fff;}</style></defs><circle class="cls-1" cx="21.32" cy="21.32" r="21.32"/><path class="cls-2" d="M374.61,393.15a3.09,3.09,0,0,0-2.11-1.76c-.18-.05-.22-.13-.24-.31a7.75,7.75,0,0,0-4.17-6.12,7.36,7.36,0,0,0-3-.88.7.7,0,0,1-.14,0h-1.06l-.14,0a7.36,7.36,0,0,0-2.36.58,7.75,7.75,0,0,0-4.79,6.42.31.31,0,0,1-.26.31,3.27,3.27,0,0,0-2.42,3.12v2.69a3.29,3.29,0,0,0,2.29,3.1,5.5,5.5,0,0,0,1.66.15,1.3,1.3,0,0,0,1.3-1.3q0-3.28,0-6.57A1.5,1.5,0,0,0,359,392a1.28,1.28,0,0,0-1.11-.73,6.54,6.54,0,0,1,13,0l-.23,0a1.28,1.28,0,0,0-1,1.23q0,3.33,0,6.64a1.19,1.19,0,0,0,.67,1.1,5.85,5.85,0,0,0,.63.23,1.91,1.91,0,0,1-1.59,1.87c-.53.07-1.09,0-1.63.05a.22.22,0,0,1-.23-.15,1.82,1.82,0,0,0-1.49-1.13,12.83,12.83,0,0,0-1.64,0,2,2,0,0,0-1.93,1.81,1.92,1.92,0,0,0,1.63,2.08,12.37,12.37,0,0,0,1.61,0,2,2,0,0,0,.55-.08,1.94,1.94,0,0,0,1.34-1.23h1.45a3.27,3.27,0,0,0,3.09-2.3c.1-.33.14-.69.21-1.05l.14-.05a3.23,3.23,0,0,0,2.33-2.36c0-.14.07-.29.1-.43v-3.36A6.86,6.86,0,0,0,374.61,393.15Zm-16.74,6a2.28,2.28,0,0,1-2.12-.65,1.82,1.82,0,0,1-.49-1.23q0-1.38,0-2.76a2,2,0,0,1,1.89-1.9h.72Zm7.87,4.61h-1.29a.66.66,0,1,1,0-1.31h1.29a.66.66,0,1,1,0,1.31Zm7.88-6.52a2,2,0,0,1-1.92,1.93H371v-6.58c.34,0,.67,0,1,.06a1.93,1.93,0,0,1,1.62,1.89Q373.64,395.86,373.62,397.21Z" transform="translate(-343.11 -373.22)"/><path class="cls-2" d="M364.36,389.3a2,2,0,0,1,2,1.52,1.94,1.94,0,0,1-1.17,2.25,2.07,2.07,0,0,0-1.41,2.08.69.69,0,0,0,.67.71.65.65,0,0,0,.64-.7.8.8,0,0,1,.59-.87,3.27,3.27,0,0,0-1.24-6.3,3.13,3.13,0,0,0-1.5.36,3.24,3.24,0,0,0-1.78,2.9.65.65,0,0,0,.6.67.66.66,0,0,0,.7-.53,1.62,1.62,0,0,0,0-.22A2,2,0,0,1,364.36,389.3Z" transform="translate(-343.11 -373.22)"/><path class="cls-2" d="M364.44,397.17a1,1,0,0,0-1,1,1,1,0,1,0,2,0A1,1,0,0,0,364.44,397.17Z" transform="translate(-343.11 -373.22)"/></svg>