<svg id="Слой_1" data-name="Слой 1" xmlns="http://www.w3.org/2000/svg" viewBox="0 0 50.92 50.92"><defs><style>.cls-1{fill:#4f924b;}</style></defs><path class="cls-1" d="M361.37,384.69a4.48,4.48,0,0,1,7.59,3c.12,2.42-2.3,4.65-3.35,5.49L362.5,396v3.11h3.11v-1.69l2-1.74c1.74-1.42,4.65-4.37,4.49-8a7.64,7.64,0,0,0-12.9-5.14,7.49,7.49,0,0,0-2.34,5.5H360A4.44,4.44,0,0,1,361.37,384.69Z" transform="translate(-338.98 -369.09)"/><rect class="cls-1" x="23.52" y="33.26" width="3.11" height="3.23"/><path class="cls-1" d="M339,369.09V420H389.9V369.09Zm47.69,47.69H342.21V372.32h44.46Z" transform="translate(-338.98 -369.09)"/></svg>