<svg id="Слой_1" data-name="Слой 1" xmlns="http://www.w3.org/2000/svg" viewBox="0 0 18.9 18.92"><defs><style>.cls-1{fill:#fff;}</style></defs><path class="cls-1" d="M298.12,411.31a9.46,9.46,0,1,0,9.41,9.47A9.47,9.47,0,0,0,298.12,411.31Zm0,17.49a8,8,0,1,1,8-8.06A8,8,0,0,1,298.08,428.8Z" transform="translate(-288.63 -411.31)"/><path class="cls-1" d="M297.5,415.62a2.85,2.85,0,0,0-2.25,2.69.74.74,0,0,0,.62.79.73.73,0,0,0,.79-.55,1.53,1.53,0,0,0,0-.3,1.4,1.4,0,0,1,1.47-1.24,1.32,1.32,0,0,1,1.27,1.45,1.52,1.52,0,0,1-1.37,1.55c-.55.13-.72.33-.73.88,0,.28,0,.56,0,.84h0c0,.34,0,.68,0,1a.69.69,0,0,0,.68.67.69.69,0,0,0,.72-.67,3.62,3.62,0,0,0,0-.87c-.05-.4.1-.58.47-.74a3.05,3.05,0,0,0,1.51-3.72A2.8,2.8,0,0,0,297.5,415.62Z" transform="translate(-288.63 -411.31)"/><path class="cls-1" d="M298.06,424.31a.93.93,0,0,0-.91.92.93.93,0,1,0,.91-.92Z" transform="translate(-288.63 -411.31)"/></svg>