<svg id="Слой_1" data-name="Слой 1" xmlns="http://www.w3.org/2000/svg" viewBox="0 0 37.02 20.06"><defs><style>.cls-1{fill:#d4782e;}.cls-2{fill:#fff;}</style></defs><path class="cls-1" d="M558.86,439.39h-27v20.06h27a10,10,0,0,0,10-10h0A10,10,0,0,0,558.86,439.39Z" transform="translate(-531.87 -439.39)"/><path class="cls-2" d="M548.2,445.79a.27.27,0,0,1,.2.09.27.27,0,0,1,.08.19v6.69a.27.27,0,0,1-.28.28h-.84a.32.32,0,0,1-.2-.08.3.3,0,0,1-.08-.2V450H544v2.73a.27.27,0,0,1-.09.2.27.27,0,0,1-.19.08h-.84a.3.3,0,0,1-.2-.08.28.28,0,0,1-.08-.2v-6.69a.27.27,0,0,1,.08-.19.27.27,0,0,1,.2-.09h.84a.31.31,0,0,1,.28.28v2.66h3.12v-2.66a.27.27,0,0,1,.08-.19.28.28,0,0,1,.2-.09Z" transform="translate(-531.87 -439.39)"/><path class="cls-2" d="M550.37,453a.27.27,0,0,1-.19-.08.27.27,0,0,1-.09-.2v-6.69a.31.31,0,0,1,.28-.28h.84a.27.27,0,0,1,.2.09.27.27,0,0,1,.08.19v6.69a.27.27,0,0,1-.28.28Z" transform="translate(-531.87 -439.39)"/><path class="cls-2" d="M557.93,445.79a.28.28,0,0,1,.2.09.27.27,0,0,1,.08.19v.74a.3.3,0,0,1-.08.2.32.32,0,0,1-.2.08h-1.86v5.67a.27.27,0,0,1-.09.2.27.27,0,0,1-.19.08H555a.27.27,0,0,1-.28-.28v-5.67h-1.86a.28.28,0,0,1-.2-.08.26.26,0,0,1-.08-.2v-.74a.24.24,0,0,1,.08-.19.25.25,0,0,1,.2-.09Z" transform="translate(-531.87 -439.39)"/></svg>