<svg id="Слой_1" data-name="Слой 1" xmlns="http://www.w3.org/2000/svg" viewBox="0 0 37.02 20.06"><defs><style>.cls-1{fill:#9ac353;}.cls-2{fill:#fff;}</style></defs><path class="cls-1" d="M558.86,439.39h-27v20.06h27a10,10,0,0,0,10-10h0A10,10,0,0,0,558.86,439.39Z" transform="translate(-531.87 -439.39)"/><path class="cls-2" d="M544.67,453a.37.37,0,0,1-.27-.09l-.14-.15-2.9-4.3v4.26a.26.26,0,0,1-.08.2.28.28,0,0,1-.2.08h-.83a.28.28,0,0,1-.2-.08.26.26,0,0,1-.08-.2v-6.69a.24.24,0,0,1,.08-.19.25.25,0,0,1,.2-.09H541a.37.37,0,0,1,.27.1l.13.14,2.9,4.31v-4.27a.27.27,0,0,1,.08-.19.28.28,0,0,1,.2-.09h.84a.27.27,0,0,1,.2.09.27.27,0,0,1,.08.19v6.69a.27.27,0,0,1-.28.28Z" transform="translate(-531.87 -439.39)"/><path class="cls-2" d="M552.11,451.75a.24.24,0,0,1,.19.08.25.25,0,0,1,.09.19v.74a.27.27,0,0,1-.09.2.27.27,0,0,1-.19.08h-4.55a.27.27,0,0,1-.19-.08.27.27,0,0,1-.09-.2v-6.69a.31.31,0,0,1,.28-.28H552a.25.25,0,0,1,.2.09.24.24,0,0,1,.08.19v.74a.26.26,0,0,1-.08.2.28.28,0,0,1-.2.08h-3.34v1.64h3.12a.31.31,0,0,1,.28.28v.74a.31.31,0,0,1-.28.28h-3.12v1.72Z" transform="translate(-531.87 -439.39)"/><path class="cls-2" d="M557,449.59l-.89,3.1a.73.73,0,0,1-.13.25.26.26,0,0,1-.23.1h-.84a.3.3,0,0,1-.24-.1.49.49,0,0,1-.12-.25l-1.33-6.53s0-.07,0-.09a.31.31,0,0,1,.28-.28h.77a.32.32,0,0,1,.2.07.31.31,0,0,1,.12.21l.87,4.39.77-2.76a.62.62,0,0,1,.09-.19.32.32,0,0,1,.27-.11h.85a.3.3,0,0,1,.26.11,1.2,1.2,0,0,1,.1.19l.76,2.76.87-4.39a.32.32,0,0,1,.13-.21.3.3,0,0,1,.19-.07h.77a.27.27,0,0,1,.2.09.27.27,0,0,1,.08.19.34.34,0,0,1,0,.09l-1.32,6.53a.73.73,0,0,1-.12.25.3.3,0,0,1-.25.1h-.84a.26.26,0,0,1-.23-.1,1,1,0,0,1-.13-.25Z" transform="translate(-531.87 -439.39)"/></svg>